<svg width="32" height="32" viewBox="0 0 32 32" fill="none" xmlns="http://www.w3.org/2000/svg">
<path d="M22.5 13.5C22.5 13.2348 22.3946 12.9804 22.2071 12.7929C22.0196 12.6054 21.7652 12.5 21.5 12.5H15L13.8 10.9C13.7069 10.7758 13.5861 10.675 13.4472 10.6056C13.3084 10.5361 13.1552 10.5 13 10.5H10.5C10.2348 10.5 9.98043 10.6054 9.79289 10.7929C9.60536 10.9804 9.5 11.2348 9.5 11.5V20.5C9.5 20.7652 9.60536 21.0196 9.79289 21.2071C9.98043 21.3946 10.2348 21.5 10.5 21.5H21.5C21.7652 21.5 22.0196 21.3946 22.2071 21.2071C22.3946 21.0196 22.5 20.7652 22.5 20.5V13.5Z" stroke="#171717" stroke-width="1.5" stroke-linecap="round" stroke-linejoin="round"/>
</svg>
