<svg width="64" height="64" viewBox="0 0 64 64" fill="none" xmlns="http://www.w3.org/2000/svg"><rect width="64" height="64" rx="16" fill="black"/><path d="M22.5664 35.1406H25.4258L27.125 37.332L28.3203 38.7617L31.2383 42.5H28.168L26.1992 40.0039L25.3438 38.7969L22.5664 35.1406ZM23.6445 41.2344C22.1211 41.2344 20.75 40.8789 19.5312 40.168C18.3203 39.457 17.3633 38.4336 16.6602 37.0977C15.9648 35.7617 15.6172 34.1562 15.6172 32.2812C15.6172 30.3984 15.9648 28.7891 16.6602 27.4531C17.3633 26.1094 18.3203 25.082 19.5312 24.3711C20.75 23.6602 22.1211 23.3047 23.6445 23.3047C25.1758 23.3047 26.543 23.6602 27.7461 24.3711C28.9492 25.082 29.9023 26.1094 30.6055 27.4531C31.3086 28.7891 31.6602 30.3984 31.6602 32.2812C31.6602 34.1562 31.3086 35.7617 30.6055 37.0977C29.9023 38.4336 28.9492 39.457 27.7461 40.168C26.543 40.8789 25.1758 41.2344 23.6445 41.2344ZM23.6445 38.3984C24.5898 38.3984 25.4258 38.1641 26.1523 37.6953C26.8789 37.2266 27.4492 36.5391 27.8633 35.6328C28.2773 34.7188 28.4844 33.6016 28.4844 32.2812C28.4844 30.9531 28.2773 29.832 27.8633 28.918C27.4492 28.0039 26.8789 27.3125 26.1523 26.8438C25.4258 26.375 24.5898 26.1406 23.6445 26.1406C22.6992 26.1406 21.8594 26.375 21.125 26.8438C20.3984 27.3125 19.8281 28.0039 19.4141 28.918C19 29.832 18.793 30.9531 18.793 32.2812C18.793 33.6016 19 34.7188 19.4141 35.6328C19.8281 36.5391 20.3984 37.2266 21.125 37.6953C21.8594 38.1641 22.6992 38.3984 23.6445 38.3984ZM44.7852 23.5391H47.9375V34.9414C47.9375 36.1914 47.6445 37.293 47.0586 38.2461C46.4727 39.1914 45.6484 39.9336 44.5859 40.4727C43.5234 41.0039 42.2812 41.2695 40.8594 41.2695C39.4375 41.2695 38.1953 41.0039 37.1328 40.4727C36.0703 39.9336 35.2422 39.1914 34.6484 38.2461C34.0625 37.293 33.7695 36.1914 33.7695 34.9414V23.5391H36.9336V34.6836C36.9336 35.418 37.0938 36.0664 37.4141 36.6289C37.7344 37.1914 38.1875 37.6367 38.7734 37.9648C39.3672 38.2852 40.0625 38.4453 40.8594 38.4453C41.6562 38.4453 42.3477 38.2852 42.9336 37.9648C43.5195 37.6367 43.9727 37.1914 44.293 36.6289C44.6211 36.0664 44.7852 35.418 44.7852 34.6836V23.5391Z" fill="white"/></svg>
